<svg height="800" width="800" xmlns="http://www.w3.org/2000/svg" viewBox="0 0 512 512" xml:space="preserve"><path style="fill:#b4bbcc" d="M463.592 44.548H48.407c-22.097 0-40.011 17.913-40.011 40.011v342.883c0 22.097 17.913 40.011 40.011 40.011h415.185c22.097 0 40.011-17.913 40.011-40.011V84.558c.001-22.097-17.913-40.01-40.011-40.01z"/><path style="fill:#a6e7ff" d="M465.963 234.027V107.646c0-14.06-11.398-25.458-25.458-25.458H71.494c-14.06 0-25.458 11.398-25.458 25.458v232.141l48.362 44.018 371.565-149.778z"/><path style="fill:#fff" d="M46.029 161.99a52.85 52.85 0 0 1 32.824-11.362c23.464 0 43.359 15.23 50.373 36.338a56.98 56.98 0 0 1 28.904-7.835c29.269 0 53.392 21.963 56.83 50.303 24.927 2.678 44.496 23.256 45.583 48.626l-61.879 60.487-152.626 1.239-.009-177.796z"/><path style="fill:#6c994e" d="M161.193 308.769s-66.479-25.056-115.157 31.018v64.567c0 14.06 11.398 25.458 25.458 25.458l101.224-76.577-11.525-44.466z"/><path style="opacity:.1;enable-background:new" d="M46.037 373.373c48.679-56.074 115.157-31.018 115.157-31.018l4.247 16.386 7.278-5.506-11.525-44.466s-66.479-25.056-115.157 31.018v33.586z"/><path style="fill:#7eb35b" d="M71.494 429.812c33.779-89.67 139.695-195.445 227.837-135.727l-29.294 94.185-74.548 41.542H71.494z"/><path style="opacity:.1;enable-background:new" d="m296.303 303.822 3.028-9.736c-88.143-59.718-194.058 46.057-227.837 135.727h32.167c37.082-74.969 117.995-150.706 192.642-125.991z"/><path style="fill:#a5eb78" d="M465.963 404.354V234.027c-169.54-16.857-270.475 195.785-270.475 195.785h245.017c14.06 0 25.458-11.398 25.458-25.458z"/><path style="opacity:.1;enable-background:new" d="M465.963 255.501v-21.475c-169.54-16.857-270.475 195.785-270.475 195.785h34.482c29.72-51.114 112.988-172.171 235.993-174.31z"/><circle style="fill:#ffe97a" cx="340.635" cy="176.648" r="35.936"/><path style="opacity:.1;enable-background:new" d="M315.904 187.844c0-19.845 16.087-35.932 35.932-35.932 7.055 0 13.63 2.042 19.182 5.555-6.368-10.063-17.588-16.75-30.377-16.75-19.845 0-35.932 16.087-35.932 35.932 0 12.789 6.687 24.009 16.75 30.377a35.748 35.748 0 0 1-5.555-19.182z"/><path d="M48.407 475.849H345.09c4.638 0 8.396-3.759 8.396-8.396s-3.758-8.396-8.396-8.396H48.407c-17.432 0-31.614-14.182-31.614-31.615V84.558c0-17.433 14.182-31.615 31.614-31.615h56.611c4.638 0 8.396-3.759 8.396-8.396s-3.758-8.396-8.396-8.396H48.407C21.715 36.151 0 57.867 0 84.558v342.883c0 26.692 21.715 48.408 48.407 48.408zM136.026 52.944h327.568c17.432 0 31.614 14.182 31.614 31.615v342.883c0 17.433-14.182 31.615-31.614 31.615h-84.919c-4.638 0-8.396 3.759-8.396 8.396s3.758 8.396 8.396 8.396h84.919c26.691 0 48.407-21.715 48.407-48.408V84.558c0-26.691-21.715-48.408-48.407-48.408H136.026c-4.638 0-8.396 3.759-8.396 8.396s3.757 8.398 8.396 8.398z"/><path d="M474.36 404.354V107.646c0-18.668-15.186-33.854-33.853-33.854H71.494c-18.668 0-33.854 15.186-33.854 33.854v54.07c-.003.113-.001.225 0 .338v242.3c0 18.629 15.124 33.788 33.738 33.852.038 0 .077.006.116.006l.029-.002h123.925l.036.002.027-.002h244.996c18.665-.002 33.853-15.188 33.853-33.856zM54.433 107.646c0-9.407 7.654-17.061 17.061-17.061h369.011c9.407 0 17.06 7.654 17.06 17.061v117.35c-15.437-.819-30.873.12-46.017 2.858-16.708 3.022-33.44 8.272-49.733 15.604-14.707 6.617-29.385 15.082-43.627 25.158-6.557 4.638-13.093 9.676-19.561 15.062-9.688-5.821-19.853-9.989-30.359-12.504-3.764-24.083-22.254-43.79-46.051-49.046-6.573-29.706-33.082-51.391-64.09-51.391a65.67 65.67 0 0 0-24.627 4.796 61.379 61.379 0 0 0-54.648-33.299c-8.55 0-16.797 1.718-24.42 5.028v-39.615h.001zm0 58.634c7.25-4.757 15.615-7.254 24.42-7.254a44.618 44.618 0 0 1 42.405 30.59 8.39 8.39 0 0 0 5.011 5.21 8.404 8.404 0 0 0 7.203-.613 48.806 48.806 0 0 1 24.657-6.684c24.677 0 45.526 18.451 48.494 42.918a8.396 8.396 0 0 0 7.439 7.337c17.43 1.873 31.739 14.426 36.464 30.746-13.721-.844-27.871.978-42.19 5.526-16.911 5.371-33.281 14.218-48.647 25.42-6.81-1.968-20.807-5.183-38.094-4.616-18.445.606-43.672 5.774-67.161 25.052V166.28h-.001zm11.694 254.258c-6.784-2.257-11.694-8.653-11.694-16.184v-61.325c18.11-19.773 40.655-30.34 67.087-31.365 8.115-.316 15.441.357 21.383 1.3-33.983 29.925-61.541 70.478-76.776 107.574zm167.587-54.463a8.399 8.399 0 0 0-11.535 2.82c-3.482 5.736-7.27 11.558-10.933 17.188-7.342 11.285-14.898 22.911-21.052 35.334H83.971c29.733-68.724 86.451-117.7 129.446-131.356 25.683-8.157 49.799-6.355 71.844 5.335a374.538 374.538 0 0 0-4.814 4.518c-10.743 10.274-21.354 21.656-31.538 33.832a475.655 475.655 0 0 0-3.456 4.18 8.397 8.397 0 0 0 1.19 11.814c3.482 2.845 8.905 2.372 11.815-1.19a436.243 436.243 0 0 1 3.331-4.029c9.787-11.701 19.969-22.625 30.264-32.469 11.674-11.164 23.73-21.164 35.833-29.726 13.364-9.453 27.097-17.377 40.82-23.553 15.048-6.771 30.469-11.614 45.832-14.392 14.154-2.56 28.595-3.411 43.027-2.575v162.55c0 9.407-7.653 17.061-17.06 17.061h-231.33c4.955-8.942 10.609-17.663 16.148-26.175 3.732-5.738 7.593-11.671 11.212-17.63a8.401 8.401 0 0 0-2.821-11.537z"/><path d="M340.64 220.977c24.442 0 44.328-19.886 44.328-44.328s-19.886-44.328-44.328-44.328c-24.442 0-44.328 19.886-44.328 44.328s19.886 44.328 44.328 44.328zm0-71.863c15.184 0 27.536 12.352 27.536 27.536 0 15.183-12.352 27.536-27.536 27.536-15.184 0-27.536-12.353-27.536-27.536.002-15.185 12.353-27.536 27.536-27.536z"/></svg>